# MagicaVoxel @ Ephtracy

# group
o 

# material
mtllib 3d fon 2.1-2.mtl
usemtl palette

# normals
vn -1 0 0
vn 1 0 0
vn 0 0 1
vn 0 0 -1
vn 0 -1 0
vn 0 1 0

# texcoords
vt 0.173828 0.5
vt 0.185547 0.5
vt 0.212891 0.5
vt 0.310547 0.5

# verts
v -5 0 8
v -5 0 6
v -5 2.1 8
v -5 2.1 6
v -5 3 8
v -5 3 6
v -5 5.2 8
v -5 5.2 7.9
v -5 6.8 7.9
v -5 6.8 6
v -4 2.1 8
v -4 2.1 6
v -4 3 8
v -4 3 6
v -3.1 6.8 8
v -3.1 6.8 7.9
v -3.1 6.8 6.7
v -3.1 8.8 8
v -3.1 8.8 6.7
v -2.8 7.4 6.7
v -2.8 7.4 6.6
v -2.8 8.8 7.4
v -2.8 8.8 6.7
v -2.8 8.9 7.4
v -2.8 8.9 6.6
v -1.9 8.8 8
v -1.9 8.8 7.4
v -1.9 8.9 7.4
v -1.9 8.9 7.2
v -1.9 9 8
v -1.9 9 7.2
v -1.2 8.8 7.1
v -1.2 8.8 6.7
v -1.2 8.9 7.1
v -1.2 8.9 6.7
v -0.6 6.9 6.7
v -0.6 6.9 6.5
v -0.6 8.8 7.2
v -0.6 8.8 7.1
v -0.6 8.8 6.7
v -0.6 8.9 7.2
v -0.6 8.9 7.1
v -0.6 8.9 6.7
v -0.6 8.9 6.5
v 1.1 6.8 6.6
v 1.1 6.8 6
v 1.1 6.9 6.6
v 1.1 6.9 6.5
v 1.1 6.9 6
v 1.7 8.8 7.9
v 1.7 8.8 7.1
v 1.7 8.9 7.9
v 1.7 8.9 7.1
v 3 6.8 6.7
v 3 6.8 6.1
v 3 7.6 6.7
v 3 7.6 6.1
v 3.5 6.8 7.7
v 3.5 6.8 7.5
v 3.5 6.9 7.7
v 3.5 6.9 7.5
v 4.3 6.8 7.8
v 4.3 6.8 7.7
v 4.3 6.9 7.8
v 4.3 6.9 7.7
v 5.3 5.5 7.2
v 5.3 5.5 6.3
v 5.3 5.6 7.3
v 5.3 5.6 7.2
v 5.3 6 7.3
v 5.3 6 6.3
v 5.5 4.9 7.2
v 5.5 4.9 6.2
v 5.5 5.2 7.2
v 5.5 5.2 6.2
v 6 3.1 8
v 6 3.1 7.6
v 6 3.2 8
v 6 3.2 7.6
v 6.2 3.1 7
v 6.2 3.1 6.2
v 6.2 3.2 7
v 6.2 3.2 6.2
v -1.6 7.4 6.7
v -1.6 7.4 6.6
v -1.6 8.8 7.2
v -1.6 8.8 6.7
v -1.6 8.9 7.2
v -1.6 8.9 6.6
v 1.4 8.8 8
v 1.4 8.8 7.7
v 1.4 8.9 7.7
v 1.4 8.9 7.2
v 1.4 9 8
v 1.4 9 7.2
v 1.6 6.9 6.7
v 1.6 6.9 6.6
v 1.6 6.9 6.5
v 1.6 8.8 7.7
v 1.6 8.8 7.1
v 1.6 8.8 6.7
v 1.6 8.9 7.7
v 1.6 8.9 7.1
v 1.6 8.9 6.7
v 1.6 8.9 6.5
v 2.4 6.8 6.6
v 2.4 6.8 6
v 2.4 6.9 6.6
v 2.4 6.9 6
v 2.7 8.8 7.1
v 2.7 8.8 6.7
v 2.7 8.9 7.1
v 2.7 8.9 6.7
v 3 6.8 8
v 3 6.8 7.9
v 3 6.8 7.5
v 3 7.6 7.9
v 3 7.6 7.5
v 3 7.6 7.1
v 3 7.6 6.7
v 3 8.8 8
v 3 8.8 7.9
v 3 8.8 7.1
v 3 8.8 6.7
v 3.1 7.6 7.9
v 3.1 7.6 7.5
v 3.1 7.6 7.1
v 3.1 8.9 7.9
v 3.1 8.9 7.1
v 4.2 6.8 6.6
v 4.2 6.8 6.1
v 4.2 6.9 7.5
v 4.2 6.9 6.6
v 4.2 7.6 7.5
v 4.2 7.6 6.1
v 4.5 5.2 7.9
v 4.5 5.2 7.6
v 4.5 5.5 6.2
v 4.5 5.5 6
v 4.5 5.6 7.8
v 4.5 5.6 7.6
v 4.5 6.7 6.6
v 4.5 6.7 6.2
v 4.5 6.8 7.9
v 4.5 6.8 7.8
v 4.5 6.8 6.6
v 4.5 6.8 6
v 4.6 6.7 7.6
v 4.6 6.7 6.6
v 4.6 6.9 7.6
v 4.6 6.9 6.6
v 4.7 4.9 7.2
v 4.7 4.9 6.1
v 4.7 5.2 7.2
v 4.7 5.2 6.1
v 4.7 5.5 7.2
v 4.7 5.5 6.2
v 4.7 5.7 7.2
v 4.7 5.7 6.2
v 4.8 5.7 7.2
v 4.8 5.7 6.2
v 4.8 6.3 7.2
v 4.8 6.3 6.2
v 5.1 5.6 7.3
v 5.1 5.6 7.2
v 5.1 6.3 7.2
v 5.1 6.3 6.3
v 5.1 6.7 7.3
v 5.1 6.7 6.3
v 5.5 3.1 8
v 5.5 3.1 7.6
v 5.5 3.1 6.2
v 5.5 3.1 6
v 5.5 4.9 6.2
v 5.5 4.9 6.1
v 5.5 5.2 8
v 5.5 5.2 7.6
v 5.5 5.2 6.1
v 5.5 5.2 6
v 5.5 5.5 7.4
v 5.5 5.5 7.3
v 5.5 6 7.3
v 5.5 6.3 6.3
v 5.5 6.3 6.2
v 5.5 6.7 7.4
v 5.5 6.7 7.3
v 5.5 6.7 6.3
v 5.5 6.7 6.2
v 6 5.6 7.8
v 6 5.6 7.6
v 6 6.7 7.6
v 6 6.9 7.8
v 6 6.9 7.6
v 6.1 3.1 7
v 6.1 3.1 6.2
v 6.1 3.2 7.6
v 6.1 3.2 7
v 6.1 5.2 7.5
v 6.1 5.2 6.2
v 6.1 5.5 7.5
v 6.1 5.5 7.4
v 6.1 5.5 7.3
v 6.1 5.5 6.3
v 6.1 6 7.3
v 6.1 6 6.3
v 6.1 6.7 7.6
v 6.1 6.7 7.4
v 6.2 5.2 7.5
v 6.2 5.2 6
v 6.2 5.5 7.5
v 6.2 5.5 6
v 7 0 8
v 7 0 6
v 7 3.1 8
v 7 3.1 6.2
v 7 3.1 6
v 7 3.2 8
v 7 3.2 6.2
v -5 0 8
v -5 2.1 8
v -5 3 8
v -5 5.2 8
v -4 2.1 8
v -4 3 8
v -3.1 6.8 8
v -3.1 8.8 8
v -1.9 8.8 8
v -1.9 9 8
v 1.4 8.8 8
v 1.4 9 8
v 3 6.8 8
v 3 8.8 8
v 5.5 3.1 8
v 5.5 5.2 8
v 6 3.1 8
v 6 3.2 8
v 7 0 8
v 7 3.1 8
v 7 3.2 8
v -5 5.2 7.9
v -5 6.8 7.9
v -3.1 6.8 7.9
v 1.7 8.8 7.9
v 1.7 8.9 7.9
v 3 6.8 7.9
v 3 7.6 7.9
v 3 8.8 7.9
v 3.1 7.6 7.9
v 3.1 8.9 7.9
v 4.5 5.2 7.9
v 4.5 6.8 7.9
v 4.3 6.8 7.8
v 4.3 6.9 7.8
v 4.5 5.6 7.8
v 4.5 6.8 7.8
v 6 5.6 7.8
v 6 6.9 7.8
v 1.4 8.8 7.7
v 1.4 8.9 7.7
v 1.6 8.8 7.7
v 1.6 8.9 7.7
v 3.5 6.8 7.7
v 3.5 6.9 7.7
v 4.3 6.8 7.7
v 4.3 6.9 7.7
v 4.5 5.2 7.6
v 4.5 5.6 7.6
v 5.5 3.1 7.6
v 5.5 5.2 7.6
v 6 3.1 7.6
v 6 3.2 7.6
v 6 5.6 7.6
v 6 6.7 7.6
v 6.1 3.2 7.6
v 6.1 6.7 7.6
v 3 6.8 7.5
v 3 7.6 7.5
v 3.1 7.6 7.5
v 3.5 6.8 7.5
v 3.5 6.9 7.5
v 4.2 6.9 7.5
v 4.2 7.6 7.5
v 6.1 5.2 7.5
v 6.1 5.5 7.5
v 6.2 5.2 7.5
v 6.2 5.5 7.5
v -2.8 8.8 7.4
v -2.8 8.9 7.4
v -1.9 8.8 7.4
v -1.9 8.9 7.4
v 5.5 5.5 7.3
v 5.5 6 7.3
v 6.1 5.5 7.3
v 6.1 6 7.3
v -1.2 8.8 7.1
v -1.2 8.9 7.1
v -0.6 8.8 7.1
v -0.6 8.9 7.1
v 1.6 8.8 7.1
v 1.6 8.9 7.1
v 1.7 8.8 7.1
v 1.7 8.9 7.1
v 1.1 6.8 6.6
v 1.1 6.9 6.6
v 1.6 6.9 6.6
v 2.4 6.8 6.6
v 2.4 6.9 6.6
v 5.1 6.3 6.3
v 5.1 6.7 6.3
v 5.5 6.3 6.3
v 5.5 6.7 6.3
v 4.7 4.9 6.1
v 4.7 5.2 6.1
v 5.5 4.9 6.1
v 5.5 5.2 6.1
v 4.6 6.7 7.6
v 4.6 6.9 7.6
v 6 6.7 7.6
v 6 6.9 7.6
v 5.5 5.5 7.4
v 5.5 6.7 7.4
v 6.1 5.5 7.4
v 6.1 6.7 7.4
v 5.1 5.6 7.3
v 5.1 6.7 7.3
v 5.3 5.6 7.3
v 5.3 6 7.3
v 5.5 6 7.3
v 5.5 6.7 7.3
v -1.9 8.9 7.2
v -1.9 9 7.2
v -1.6 8.8 7.2
v -1.6 8.9 7.2
v -0.6 8.8 7.2
v -0.6 8.9 7.2
v 1.4 8.9 7.2
v 1.4 9 7.2
v 4.7 4.9 7.2
v 4.7 5.2 7.2
v 4.7 5.5 7.2
v 4.7 5.7 7.2
v 4.8 5.7 7.2
v 4.8 6.3 7.2
v 5.1 5.6 7.2
v 5.1 6.3 7.2
v 5.3 5.5 7.2
v 5.3 5.6 7.2
v 5.5 4.9 7.2
v 5.5 5.2 7.2
v 2.7 8.8 7.1
v 2.7 8.9 7.1
v 3 7.6 7.1
v 3 8.8 7.1
v 3.1 7.6 7.1
v 3.1 8.9 7.1
v 6.1 3.1 7
v 6.1 3.2 7
v 6.2 3.1 7
v 6.2 3.2 7
v -3.1 6.8 6.7
v -3.1 8.8 6.7
v -2.8 7.4 6.7
v -2.8 8.8 6.7
v -1.6 7.4 6.7
v -1.6 8.8 6.7
v -1.2 8.8 6.7
v -1.2 8.9 6.7
v -0.6 6.9 6.7
v -0.6 8.8 6.7
v -0.6 8.9 6.7
v 1.6 6.9 6.7
v 1.6 8.8 6.7
v 1.6 8.9 6.7
v 2.7 8.8 6.7
v 2.7 8.9 6.7
v 3 6.8 6.7
v 3 7.6 6.7
v 3 8.8 6.7
v -2.8 7.4 6.6
v -2.8 8.9 6.6
v -1.6 7.4 6.6
v -1.6 8.9 6.6
v 4.2 6.8 6.6
v 4.2 6.9 6.6
v 4.5 6.7 6.6
v 4.5 6.8 6.6
v 4.6 6.7 6.6
v 4.6 6.9 6.6
v -0.6 6.9 6.5
v -0.6 8.9 6.5
v 1.1 6.9 6.5
v 1.6 6.9 6.5
v 1.6 8.9 6.5
v 5.3 5.5 6.3
v 5.3 6 6.3
v 6.1 5.5 6.3
v 6.1 6 6.3
v 4.5 5.5 6.2
v 4.5 6.7 6.2
v 4.7 5.5 6.2
v 4.7 5.7 6.2
v 4.8 5.7 6.2
v 4.8 6.3 6.2
v 5.5 3.1 6.2
v 5.5 4.9 6.2
v 5.5 5.2 6.2
v 5.5 6.3 6.2
v 5.5 6.7 6.2
v 6.1 3.1 6.2
v 6.1 5.2 6.2
v 6.2 3.1 6.2
v 6.2 3.2 6.2
v 7 3.1 6.2
v 7 3.2 6.2
v 3 6.8 6.1
v 3 7.6 6.1
v 4.2 6.8 6.1
v 4.2 7.6 6.1
v -5 0 6
v -5 2.1 6
v -5 3 6
v -5 6.8 6
v -4 2.1 6
v -4 3 6
v 1.1 6.8 6
v 1.1 6.9 6
v 2.4 6.8 6
v 2.4 6.9 6
v 4.5 5.2 6
v 4.5 5.5 6
v 4.5 6.8 6
v 5.5 3.1 6
v 5.5 5.2 6
v 6.2 5.2 6
v 6.2 5.5 6
v 7 0 6
v 7 3.1 6
v -5 0 8
v 7 0 8
v -5 0 6
v 7 0 6
v -5 3 8
v -4 3 8
v -5 3 6
v -4 3 6
v 6.1 5.2 7.5
v 6.2 5.2 7.5
v 4.7 5.2 7.2
v 5.5 5.2 7.2
v 5.5 5.2 6.2
v 6.1 5.2 6.2
v 4.7 5.2 6.1
v 5.5 5.2 6.1
v 5.5 5.2 6
v 6.2 5.2 6
v 4.5 5.6 7.8
v 6 5.6 7.8
v 4.5 5.6 7.6
v 6 5.6 7.6
v 4.7 5.7 7.2
v 4.8 5.7 7.2
v 4.7 5.7 6.2
v 4.8 5.7 6.2
v 4.8 6.3 7.2
v 5.1 6.3 7.2
v 5.1 6.3 6.3
v 5.5 6.3 6.3
v 4.8 6.3 6.2
v 5.5 6.3 6.2
v -3.1 6.8 8
v 3 6.8 8
v -3.1 6.8 7.9
v 3 6.8 7.9
v -0.6 6.9 6.7
v 1.6 6.9 6.7
v 1.1 6.9 6.6
v 1.6 6.9 6.6
v -0.6 6.9 6.5
v 1.1 6.9 6.5
v -2.8 7.4 6.7
v -1.6 7.4 6.7
v -2.8 7.4 6.6
v -1.6 7.4 6.6
v 3 7.6 7.9
v 3.1 7.6 7.9
v 3 7.6 7.5
v 3.1 7.6 7.5
v -5 2.1 8
v -4 2.1 8
v -5 2.1 6
v -4 2.1 6
v 5.5 3.1 8
v 6 3.1 8
v 5.5 3.1 7.6
v 6 3.1 7.6
v 6.1 3.1 7
v 6.2 3.1 7
v 5.5 3.1 6.2
v 6.1 3.1 6.2
v 6.2 3.1 6.2
v 7 3.1 6.2
v 5.5 3.1 6
v 7 3.1 6
v 6 3.2 8
v 7 3.2 8
v 6 3.2 7.6
v 6.1 3.2 7.6
v 6.1 3.2 7
v 6.2 3.2 7
v 6.2 3.2 6.2
v 7 3.2 6.2
v 4.7 4.9 7.2
v 5.5 4.9 7.2
v 5.5 4.9 6.2
v 4.7 4.9 6.1
v 5.5 4.9 6.1
v -5 5.2 8
v 5.5 5.2 8
v -5 5.2 7.9
v 4.5 5.2 7.9
v 4.5 5.2 7.6
v 5.5 5.2 7.6
v 6.1 5.5 7.5
v 6.2 5.5 7.5
v 5.5 5.5 7.4
v 6.1 5.5 7.4
v 5.5 5.5 7.3
v 6.1 5.5 7.3
v 4.7 5.5 7.2
v 5.3 5.5 7.2
v 5.3 5.5 6.3
v 6.1 5.5 6.3
v 4.5 5.5 6.2
v 4.7 5.5 6.2
v 4.5 5.5 6
v 6.2 5.5 6
v 5.1 5.6 7.3
v 5.3 5.6 7.3
v 5.1 5.6 7.2
v 5.3 5.6 7.2
v 5.3 6 7.3
v 5.5 6 7.3
v 6.1 6 7.3
v 5.3 6 6.3
v 6.1 6 6.3
v 4.6 6.7 7.6
v 6 6.7 7.6
v 6.1 6.7 7.6
v 5.5 6.7 7.4
v 6.1 6.7 7.4
v 5.1 6.7 7.3
v 5.5 6.7 7.3
v 4.5 6.7 6.6
v 4.6 6.7 6.6
v 5.1 6.7 6.3
v 5.5 6.7 6.3
v 4.5 6.7 6.2
v 5.5 6.7 6.2
v -5 6.8 7.9
v -3.1 6.8 7.9
v 3 6.8 7.9
v 4.5 6.8 7.9
v 4.3 6.8 7.8
v 4.5 6.8 7.8
v 3.5 6.8 7.7
v 4.3 6.8 7.7
v 3 6.8 7.5
v 3.5 6.8 7.5
v -3.1 6.8 6.7
v 3 6.8 6.7
v 1.1 6.8 6.6
v 2.4 6.8 6.6
v 4.2 6.8 6.6
v 4.5 6.8 6.6
v 3 6.8 6.1
v 4.2 6.8 6.1
v -5 6.8 6
v 1.1 6.8 6
v 2.4 6.8 6
v 4.5 6.8 6
v 4.3 6.9 7.8
v 6 6.9 7.8
v 3.5 6.9 7.7
v 4.3 6.9 7.7
v 4.6 6.9 7.7
v 4.6 6.9 7.6
v 6 6.9 7.6
v 3.5 6.9 7.5
v 4.2 6.9 7.5
v 1.6 6.9 6.6
v 2.4 6.9 6.6
v 4.2 6.9 6.6
v 4.6 6.9 6.6
v 1.1 6.9 6.5
v 1.6 6.9 6.5
v 1.1 6.9 6
v 2.4 6.9 6
v 3.1 7.6 7.5
v 4.2 7.6 7.5
v 3 7.6 7.1
v 3.1 7.6 7.1
v 3 7.6 6.7
v 3 7.6 6.1
v 4.2 7.6 6.1
v -3.1 8.8 8
v -1.9 8.8 8
v 1.4 8.8 8
v 3 8.8 8
v 1.7 8.8 7.9
v 3 8.8 7.9
v 1.4 8.8 7.7
v 1.6 8.8 7.7
v -2.8 8.8 7.4
v -1.9 8.8 7.4
v -1.6 8.8 7.2
v -0.6 8.8 7.2
v -1.2 8.8 7.1
v -0.6 8.8 7.1
v 1.6 8.8 7.1
v 1.7 8.8 7.1
v 2.7 8.8 7.1
v 3 8.8 7.1
v -3.1 8.8 6.7
v -2.8 8.8 6.7
v -1.6 8.8 6.7
v -1.2 8.8 6.7
v 2.7 8.8 6.7
v 3 8.8 6.7
v 1.7 8.9 7.9
v 3.1 8.9 7.9
v 1.4 8.9 7.7
v 1.6 8.9 7.7
v -2.8 8.9 7.4
v -1.9 8.9 7.4
v -1.9 8.9 7.2
v -1.6 8.9 7.2
v -0.6 8.9 7.2
v 1.4 8.9 7.2
v -1.2 8.9 7.1
v -0.6 8.9 7.1
v 1.6 8.9 7.1
v 1.7 8.9 7.1
v 2.7 8.9 7.1
v 3.1 8.9 7.1
v -1.2 8.9 6.7
v -0.6 8.9 6.7
v 1.6 8.9 6.7
v 2.7 8.9 6.7
v -2.8 8.9 6.6
v -1.6 8.9 6.6
v -0.6 8.9 6.5
v 1.6 8.9 6.5
v -1.9 9 8
v 1.4 9 8
v -1.9 9 7.2
v 1.4 9 7.2

# faces
f 3/3/1 2/3/1 1/3/1
f 4/3/1 2/3/1 3/3/1
f 7/3/1 6/3/1 5/3/1
f 8/3/1 6/3/1 7/3/1
f 9/3/1 6/3/1 8/3/1
f 10/3/1 6/3/1 9/3/1
f 13/3/1 12/3/1 11/3/1
f 14/3/1 12/3/1 13/3/1
f 18/3/1 16/3/1 15/3/1
f 18/3/1 17/3/1 16/3/1
f 19/3/1 17/3/1 18/3/1
f 23/4/1 21/4/1 20/4/1
f 24/4/1 23/4/1 22/4/1
f 25/4/1 21/4/1 23/4/1
f 25/4/1 23/4/1 24/4/1
f 28/2/1 27/2/1 26/2/1
f 30/2/1 28/2/1 26/2/1
f 30/2/1 29/2/1 28/2/1
f 31/2/1 29/2/1 30/2/1
f 34/2/1 33/2/1 32/2/1
f 35/2/1 33/2/1 34/2/1
f 40/1/1 37/1/1 36/1/1
f 41/1/1 39/1/1 38/1/1
f 42/1/1 39/1/1 41/1/1
f 43/1/1 37/1/1 40/1/1
f 44/1/1 37/1/1 43/1/1
f 47/4/1 46/4/1 45/4/1
f 48/4/1 46/4/1 47/4/1
f 49/4/1 46/4/1 48/4/1
f 52/2/1 51/2/1 50/2/1
f 53/2/1 51/2/1 52/2/1
f 56/2/1 55/2/1 54/2/1
f 57/2/1 55/2/1 56/2/1
f 60/4/1 59/4/1 58/4/1
f 61/4/1 59/4/1 60/4/1
f 64/1/1 63/1/1 62/1/1
f 65/1/1 63/1/1 64/1/1
f 69/2/1 67/2/1 66/2/1
f 70/2/1 69/2/1 68/2/1
f 71/2/1 67/2/1 69/2/1
f 71/2/1 69/2/1 70/2/1
f 74/4/1 73/4/1 72/4/1
f 75/4/1 73/4/1 74/4/1
f 78/4/1 77/4/1 76/4/1
f 79/4/1 77/4/1 78/4/1
f 82/4/1 81/4/1 80/4/1
f 83/4/1 81/4/1 82/4/1
f 84/4/2 85/4/2 87/4/2
f 86/4/2 87/4/2 88/4/2
f 87/4/2 85/4/2 89/4/2
f 88/4/2 87/4/2 89/4/2
f 90/2/2 91/2/2 92/2/2
f 90/2/2 92/2/2 94/2/2
f 92/2/2 93/2/2 94/2/2
f 94/2/2 93/2/2 95/2/2
f 96/1/2 97/1/2 101/1/2
f 97/1/2 98/1/2 101/1/2
f 99/1/2 100/1/2 102/1/2
f 102/1/2 100/1/2 103/1/2
f 101/1/2 98/1/2 104/1/2
f 104/1/2 98/1/2 105/1/2
f 106/4/2 107/4/2 108/4/2
f 108/4/2 107/4/2 109/4/2
f 110/2/2 111/2/2 112/2/2
f 112/2/2 111/2/2 113/2/2
f 114/3/2 115/3/2 117/3/2
f 115/3/2 116/3/2 117/3/2
f 117/3/2 116/3/2 118/3/2
f 114/3/2 117/3/2 121/3/2
f 121/3/2 117/3/2 122/3/2
f 119/3/2 120/3/2 123/3/2
f 123/3/2 120/3/2 124/3/2
f 125/2/2 126/2/2 128/2/2
f 126/2/2 127/2/2 128/2/2
f 128/2/2 127/2/2 129/2/2
f 130/2/2 131/2/2 133/2/2
f 132/2/2 133/2/2 134/2/2
f 133/2/2 131/2/2 135/2/2
f 134/2/2 133/2/2 135/2/2
f 136/3/2 137/3/2 140/3/2
f 140/3/2 137/3/2 141/3/2
f 138/3/2 139/3/2 143/3/2
f 136/3/2 140/3/2 144/3/2
f 144/3/2 140/3/2 145/3/2
f 142/3/2 143/3/2 146/3/2
f 143/3/2 139/3/2 147/3/2
f 146/3/2 143/3/2 147/3/2
f 148/4/2 149/4/2 150/4/2
f 150/4/2 149/4/2 151/4/2
f 152/3/2 153/3/2 154/3/2
f 154/3/2 153/3/2 155/3/2
f 156/4/2 157/4/2 158/4/2
f 158/4/2 157/4/2 159/4/2
f 160/4/2 161/4/2 162/4/2
f 162/4/2 161/4/2 163/4/2
f 164/4/2 165/4/2 166/4/2
f 164/4/2 166/4/2 168/4/2
f 166/4/2 167/4/2 168/4/2
f 168/4/2 167/4/2 169/4/2
f 172/3/2 173/3/2 174/3/2
f 174/3/2 173/3/2 175/3/2
f 170/3/2 171/3/2 176/3/2
f 176/3/2 171/3/2 177/3/2
f 175/3/2 173/3/2 178/3/2
f 178/3/2 173/3/2 179/3/2
f 180/4/2 181/4/2 182/4/2
f 180/4/2 182/4/2 185/4/2
f 185/4/2 182/4/2 186/4/2
f 183/4/2 184/4/2 187/4/2
f 187/4/2 184/4/2 188/4/2
f 189/1/2 190/1/2 191/1/2
f 189/1/2 191/1/2 192/1/2
f 192/1/2 191/1/2 193/1/2
f 194/4/2 195/4/2 197/4/2
f 196/4/2 197/4/2 198/4/2
f 197/4/2 195/4/2 199/4/2
f 198/4/2 197/4/2 199/4/2
f 196/4/2 198/4/2 200/4/2
f 202/2/2 203/2/2 204/2/2
f 204/2/2 203/2/2 205/2/2
f 196/4/2 200/4/2 206/4/2
f 200/4/2 201/4/2 206/4/2
f 206/4/2 201/4/2 207/4/2
f 208/2/2 209/2/2 210/2/2
f 210/2/2 209/2/2 211/2/2
f 212/3/2 213/3/2 214/3/2
f 214/3/2 213/3/2 215/3/2
f 215/3/2 213/3/2 216/3/2
f 214/4/2 215/4/2 217/4/2
f 217/4/2 215/4/2 218/4/2
f 223/3/3 220/3/3 219/3/3
f 224/3/3 222/3/3 221/3/3
f 227/3/3 226/3/3 225/3/3
f 229/3/3 227/3/3 225/3/3
f 229/2/3 228/2/3 227/2/3
f 230/2/3 228/2/3 229/2/3
f 231/3/3 229/3/3 225/3/3
f 232/3/3 229/3/3 231/3/3
f 233/3/3 222/3/3 224/3/3
f 233/3/3 224/3/3 223/3/3
f 234/3/3 222/3/3 233/3/3
f 235/3/3 233/3/3 223/3/3
f 237/3/3 223/3/3 219/3/3
f 237/3/3 235/3/3 223/3/3
f 238/4/3 236/4/3 235/4/3
f 238/3/3 235/3/3 237/3/3
f 239/4/3 236/4/3 238/4/3
f 242/3/3 241/3/3 240/3/3
f 245/3/3 242/3/3 240/3/3
f 247/2/3 244/2/3 243/2/3
f 248/2/3 247/2/3 246/2/3
f 249/2/3 244/2/3 247/2/3
f 249/2/3 247/2/3 248/2/3
f 250/3/3 245/3/3 240/3/3
f 251/3/3 245/3/3 250/3/3
f 255/1/3 253/1/3 252/1/3
f 256/1/3 255/1/3 254/1/3
f 257/1/3 253/1/3 255/1/3
f 257/1/3 255/1/3 256/1/3
f 260/1/3 259/1/3 258/1/3
f 261/1/3 259/1/3 260/1/3
f 264/4/3 263/4/3 262/4/3
f 265/4/3 263/4/3 264/4/3
f 269/4/3 267/4/3 266/4/3
f 270/4/3 269/4/3 268/4/3
f 271/4/3 269/4/3 270/4/3
f 272/4/3 267/4/3 269/4/3
f 272/4/3 269/4/3 271/4/3
f 274/4/3 273/4/3 272/4/3
f 274/4/3 272/4/3 271/4/3
f 275/4/3 273/4/3 274/4/3
f 278/2/3 277/2/3 276/2/3
f 279/2/3 278/2/3 276/2/3
f 280/2/3 278/2/3 279/2/3
f 281/2/3 278/2/3 280/2/3
f 282/2/3 278/2/3 281/2/3
f 285/2/3 284/2/3 283/2/3
f 286/2/3 284/2/3 285/2/3
f 289/4/3 288/4/3 287/4/3
f 290/4/3 288/4/3 289/4/3
f 293/2/3 292/2/3 291/2/3
f 294/2/3 292/2/3 293/2/3
f 297/2/3 296/2/3 295/2/3
f 298/2/3 296/2/3 297/2/3
f 301/2/3 300/2/3 299/2/3
f 302/2/3 300/2/3 301/2/3
f 305/4/3 304/4/3 303/4/3
f 306/4/3 305/4/3 303/4/3
f 307/4/3 305/4/3 306/4/3
f 310/4/3 309/4/3 308/4/3
f 311/4/3 309/4/3 310/4/3
f 314/3/3 313/3/3 312/3/3
f 315/3/3 313/3/3 314/3/3
f 316/1/4 317/1/4 318/1/4
f 318/1/4 317/1/4 319/1/4
f 320/4/4 321/4/4 322/4/4
f 322/4/4 321/4/4 323/4/4
f 324/4/4 325/4/4 326/4/4
f 326/4/4 325/4/4 327/4/4
f 327/4/4 325/4/4 328/4/4
f 328/4/4 325/4/4 329/4/4
f 330/2/4 331/2/4 333/2/4
f 332/2/4 333/2/4 334/2/4
f 333/2/4 331/2/4 335/2/4
f 334/2/4 333/2/4 335/2/4
f 335/2/4 331/2/4 336/2/4
f 336/2/4 331/2/4 337/2/4
f 340/4/4 341/4/4 342/4/4
f 340/4/4 342/4/4 344/4/4
f 342/4/4 343/4/4 344/4/4
f 344/4/4 343/4/4 345/4/4
f 340/4/4 344/4/4 346/4/4
f 346/4/4 344/4/4 347/4/4
f 338/3/4 339/3/4 348/3/4
f 348/3/4 339/3/4 349/3/4
f 350/2/4 351/2/4 353/2/4
f 352/2/4 353/2/4 354/2/4
f 353/2/4 351/2/4 355/2/4
f 354/2/4 353/2/4 355/2/4
f 356/4/4 357/4/4 358/4/4
f 358/4/4 357/4/4 359/4/4
f 360/3/4 361/3/4 362/3/4
f 362/3/4 361/3/4 363/3/4
f 360/3/4 362/3/4 364/3/4
f 364/3/4 365/3/4 366/3/4
f 364/3/4 366/3/4 368/3/4
f 360/3/4 364/3/4 368/3/4
f 366/2/4 367/2/4 369/2/4
f 368/3/4 366/3/4 369/3/4
f 369/2/4 367/2/4 370/2/4
f 360/3/4 368/3/4 371/3/4
f 371/3/4 372/3/4 374/3/4
f 372/2/4 373/2/4 374/2/4
f 374/2/4 373/2/4 375/2/4
f 360/3/4 371/3/4 376/3/4
f 371/3/4 374/3/4 376/3/4
f 376/3/4 374/3/4 377/3/4
f 377/3/4 374/3/4 378/3/4
f 379/4/4 380/4/4 381/4/4
f 381/4/4 380/4/4 382/4/4
f 383/4/4 384/4/4 386/4/4
f 385/4/4 386/4/4 387/4/4
f 386/4/4 384/4/4 388/4/4
f 387/4/4 386/4/4 388/4/4
f 389/1/4 390/1/4 391/1/4
f 391/1/4 390/1/4 392/1/4
f 392/1/4 390/1/4 393/1/4
f 394/2/4 395/2/4 396/2/4
f 396/2/4 395/2/4 397/2/4
f 398/4/4 399/4/4 400/4/4
f 400/4/4 399/4/4 401/4/4
f 401/4/4 399/4/4 402/4/4
f 402/4/4 399/4/4 403/4/4
f 403/4/4 399/4/4 407/4/4
f 407/4/4 399/4/4 408/4/4
f 405/4/4 406/4/4 409/4/4
f 404/4/4 405/4/4 409/4/4
f 409/4/4 406/4/4 410/4/4
f 411/4/4 412/4/4 413/4/4
f 413/4/4 412/4/4 414/4/4
f 415/2/4 416/2/4 417/2/4
f 417/2/4 416/2/4 418/2/4
f 419/3/4 420/3/4 423/3/4
f 421/3/4 422/3/4 424/3/4
f 424/3/4 422/3/4 425/3/4
f 423/3/4 424/3/4 425/3/4
f 423/3/4 425/3/4 427/3/4
f 425/4/4 426/4/4 427/4/4
f 427/4/4 426/4/4 428/4/4
f 423/3/4 427/3/4 429/3/4
f 429/3/4 427/3/4 430/3/4
f 430/3/4 427/3/4 431/3/4
f 423/3/4 429/3/4 432/3/4
f 429/2/4 430/2/4 433/2/4
f 432/3/4 429/3/4 433/3/4
f 433/2/4 430/2/4 434/2/4
f 434/2/4 430/2/4 435/2/4
f 419/3/4 423/3/4 436/3/4
f 423/3/4 432/3/4 436/3/4
f 436/3/4 432/3/4 437/3/4
f 440/3/5 439/3/5 438/3/5
f 441/3/5 439/3/5 440/3/5
f 444/3/5 443/3/5 442/3/5
f 445/3/5 443/3/5 444/3/5
f 450/2/5 449/2/5 448/2/5
f 451/2/5 447/2/5 446/2/5
f 452/2/5 450/2/5 448/2/5
f 452/2/5 451/2/5 450/2/5
f 453/2/5 451/2/5 452/2/5
f 454/2/5 451/2/5 453/2/5
f 455/2/5 447/2/5 451/2/5
f 455/2/5 451/2/5 454/2/5
f 458/1/5 457/1/5 456/1/5
f 459/1/5 457/1/5 458/1/5
f 462/4/5 461/4/5 460/4/5
f 463/4/5 461/4/5 462/4/5
f 466/4/5 465/4/5 464/4/5
f 468/4/5 466/4/5 464/4/5
f 468/4/5 467/4/5 466/4/5
f 469/4/5 467/4/5 468/4/5
f 472/3/5 471/3/5 470/3/5
f 473/3/5 471/3/5 472/3/5
f 476/1/5 475/1/5 474/1/5
f 477/1/5 475/1/5 476/1/5
f 478/1/5 476/1/5 474/1/5
f 479/1/5 476/1/5 478/1/5
f 482/4/5 481/4/5 480/4/5
f 483/4/5 481/4/5 482/4/5
f 486/2/5 485/2/5 484/2/5
f 487/2/5 485/2/5 486/2/5
f 488/3/6 489/3/6 490/3/6
f 490/3/6 489/3/6 491/3/6
f 492/3/6 493/3/6 494/3/6
f 494/3/6 493/3/6 495/3/6
f 496/3/6 497/3/6 499/3/6
f 499/3/6 497/3/6 500/3/6
f 498/3/6 499/3/6 502/3/6
f 500/3/6 501/3/6 502/3/6
f 499/3/6 500/3/6 502/3/6
f 502/3/6 501/3/6 503/3/6
f 504/4/6 505/4/6 506/4/6
f 506/4/6 505/4/6 507/4/6
f 507/4/6 505/4/6 508/4/6
f 508/4/6 505/4/6 509/4/6
f 509/4/6 505/4/6 510/4/6
f 510/4/6 505/4/6 511/4/6
f 512/3/6 513/3/6 514/3/6
f 512/3/6 514/3/6 515/3/6
f 515/3/6 514/3/6 516/3/6
f 517/3/6 518/3/6 519/3/6
f 519/3/6 518/3/6 520/3/6
f 520/3/6 518/3/6 521/3/6
f 521/3/6 518/3/6 522/3/6
f 523/2/6 524/2/6 526/2/6
f 525/2/6 526/2/6 527/2/6
f 526/2/6 524/2/6 528/2/6
f 527/2/6 526/2/6 528/2/6
f 529/2/6 530/2/6 531/2/6
f 528/2/6 524/2/6 532/2/6
f 529/2/6 531/2/6 534/2/6
f 531/2/6 532/2/6 534/2/6
f 533/2/6 534/2/6 535/2/6
f 532/2/6 524/2/6 536/2/6
f 535/2/6 534/2/6 536/2/6
f 534/2/6 532/2/6 536/2/6
f 537/4/6 538/4/6 539/4/6
f 539/4/6 538/4/6 540/4/6
f 541/2/6 542/2/6 544/2/6
f 542/2/6 543/2/6 544/2/6
f 544/2/6 543/2/6 545/2/6
f 546/4/6 547/4/6 549/4/6
f 547/4/6 548/4/6 549/4/6
f 549/4/6 548/4/6 550/4/6
f 546/4/6 549/4/6 551/4/6
f 551/4/6 549/4/6 552/4/6
f 546/4/6 551/4/6 554/4/6
f 554/4/6 551/4/6 555/4/6
f 553/4/6 554/4/6 555/4/6
f 553/4/6 555/4/6 557/4/6
f 555/4/6 556/4/6 557/4/6
f 557/4/6 556/4/6 558/4/6
f 561/3/6 562/3/6 563/3/6
f 563/3/6 562/3/6 564/3/6
f 561/3/6 563/3/6 565/3/6
f 565/3/6 563/3/6 566/3/6
f 561/3/6 565/3/6 567/3/6
f 567/3/6 565/3/6 568/3/6
f 559/3/6 560/3/6 569/3/6
f 569/3/6 570/3/6 571/3/6
f 571/3/6 570/3/6 572/3/6
f 572/3/6 570/3/6 575/3/6
f 573/3/6 574/3/6 576/3/6
f 569/3/6 571/3/6 577/3/6
f 559/3/6 569/3/6 577/3/6
f 577/3/6 571/3/6 578/3/6
f 572/3/6 575/3/6 579/3/6
f 575/3/6 576/3/6 579/3/6
f 576/3/6 574/3/6 580/3/6
f 579/3/6 576/3/6 580/3/6
f 581/1/6 582/1/6 584/1/6
f 584/1/6 582/1/6 585/1/6
f 583/4/6 584/4/6 586/4/6
f 585/1/6 582/1/6 586/1/6
f 584/4/6 585/4/6 586/4/6
f 586/1/6 582/1/6 587/1/6
f 583/4/6 586/4/6 588/4/6
f 588/4/6 586/4/6 589/4/6
f 589/4/6 586/4/6 592/4/6
f 592/4/6 586/4/6 593/4/6
f 590/4/6 591/4/6 595/4/6
f 594/4/6 595/4/6 596/4/6
f 595/4/6 591/4/6 597/4/6
f 596/4/6 595/4/6 597/4/6
f 598/2/6 599/2/6 601/2/6
f 600/2/6 601/2/6 602/2/6
f 602/2/6 601/2/6 603/2/6
f 601/2/6 599/2/6 604/2/6
f 603/2/6 601/2/6 604/2/6
f 607/3/6 608/3/6 609/3/6
f 609/3/6 608/3/6 610/3/6
f 607/3/6 609/3/6 611/3/6
f 611/3/6 609/3/6 612/3/6
f 605/3/6 606/3/6 613/3/6
f 613/3/6 606/3/6 614/3/6
f 615/3/6 616/3/6 617/3/6
f 617/3/6 616/3/6 618/3/6
f 612/3/6 609/3/6 619/3/6
f 619/3/6 609/3/6 620/3/6
f 605/3/6 613/3/6 623/3/6
f 623/3/6 613/3/6 624/3/6
f 615/3/6 617/3/6 625/3/6
f 625/3/6 617/3/6 626/3/6
f 621/3/6 622/3/6 627/3/6
f 627/3/6 622/3/6 628/3/6
f 633/4/6 634/4/6 635/4/6
f 631/1/6 632/1/6 638/1/6
f 637/1/6 638/1/6 640/1/6
f 638/1/6 632/1/6 641/1/6
f 640/1/6 638/1/6 641/1/6
f 629/2/6 630/2/6 642/2/6
f 642/2/6 630/2/6 643/2/6
f 643/2/6 630/2/6 644/2/6
f 639/2/6 640/2/6 645/2/6
f 640/1/6 641/1/6 646/1/6
f 645/2/6 640/2/6 646/2/6
f 641/2/6 642/2/6 647/2/6
f 646/1/6 641/1/6 647/1/6
f 642/2/6 643/2/6 647/2/6
f 647/2/6 643/2/6 648/2/6
f 635/4/6 636/4/6 649/4/6
f 633/4/6 635/4/6 649/4/6
f 649/4/6 636/4/6 650/4/6
f 646/1/6 647/1/6 651/1/6
f 651/1/6 647/1/6 652/1/6
f 653/2/6 654/2/6 655/2/6
f 655/2/6 654/2/6 656/2/6
