# Blender 3.6.1
# www.blender.org
mtllib map2 bl.mtl
o Untitled.001
v -1.000000 -0.500000 0.100000
v -1.000000 -0.500000 -0.100000
v -1.000000 3.500000 6.000000
v -1.000000 3.500000 0.100000
v -1.000000 3.500000 -0.100000
v -1.000000 3.500000 -6.000000
v -1.000000 4.500000 6.000000
v -1.000000 4.500000 -6.000000
v -0.800000 -0.500000 0.300000
v -0.800000 -0.500000 0.100000
v -0.800000 -0.500000 -0.100000
v -0.800000 -0.500000 -0.300000
v -0.800000 3.500000 0.300000
v -0.800000 3.500000 0.100000
v -0.800000 3.500000 -0.100000
v -0.800000 3.500000 -0.300000
v -0.600000 -0.500000 0.500000
v -0.600000 -0.500000 0.300000
v -0.600000 -0.500000 -0.300000
v -0.600000 -0.500000 -0.500000
v -0.600000 3.500000 0.500000
v -0.600000 3.500000 0.300000
v -0.600000 3.500000 -0.300000
v -0.600000 3.500000 -0.500000
v -0.400000 -0.400000 0.200000
v -0.400000 -0.400000 0.100000
v -0.400000 1.400000 0.200000
v -0.400000 1.400000 0.100000
v 0.100000 1.200000 0.500000
v 0.100000 1.200000 -0.500000
v 0.100000 1.300000 0.500000
v 0.100000 1.300000 -0.500000
v 0.200000 1.100000 0.500000
v 0.200000 1.100000 -0.500000
v 0.200000 1.200000 0.500000
v 0.200000 1.200000 -0.500000
v 0.300000 -0.500000 0.400000
v 0.300000 -0.500000 -0.400000
v 0.300000 1.100000 0.400000
v 0.300000 1.100000 -0.400000
v 0.500000 -0.500000 0.500000
v 0.500000 -0.500000 0.400000
v 0.500000 -0.500000 -0.400000
v 0.500000 -0.500000 -0.500000
v 0.500000 1.100000 0.500000
v 0.500000 1.100000 0.400000
v 0.500000 1.100000 -0.400000
v 0.500000 1.100000 -0.500000
v 0.700000 -0.400000 0.200000
v 0.700000 -0.400000 0.100000
v 0.700000 3.500000 0.200000
v 0.700000 3.500000 0.100000
v -0.700000 -0.400000 0.200000
v -0.700000 -0.400000 0.100000
v -0.700000 3.500000 0.200000
v -0.700000 3.500000 0.100000
v -0.500000 -0.500000 0.500000
v -0.500000 -0.500000 0.400000
v -0.500000 -0.500000 -0.400000
v -0.500000 -0.500000 -0.500000
v -0.500000 1.100000 0.500000
v -0.500000 1.100000 0.400000
v -0.500000 1.100000 -0.400000
v -0.500000 1.100000 -0.500000
v -0.300000 -0.500000 0.400000
v -0.300000 -0.500000 -0.400000
v -0.300000 1.100000 0.400000
v -0.300000 1.100000 -0.400000
v -0.200000 1.100000 0.500000
v -0.200000 1.100000 -0.500000
v -0.200000 1.200000 0.500000
v -0.200000 1.200000 -0.500000
v -0.100000 1.200000 0.500000
v -0.100000 1.200000 -0.500000
v -0.100000 1.300000 0.500000
v -0.100000 1.300000 -0.500000
v 0.100000 1.300000 0.200000
v 0.100000 1.300000 0.100000
v 0.100000 1.400000 0.200000
v 0.100000 1.400000 0.100000
v 0.400000 -0.400000 0.200000
v 0.400000 -0.400000 0.100000
v 0.400000 1.300000 0.200000
v 0.400000 1.300000 0.100000
v 0.600000 -0.500000 0.500000
v 0.600000 -0.500000 0.300000
v 0.600000 -0.500000 -0.300000
v 0.600000 -0.500000 -0.500000
v 0.600000 3.500000 0.500000
v 0.600000 3.500000 0.300000
v 0.600000 3.500000 -0.300000
v 0.600000 3.500000 -0.500000
v 0.800000 -0.500000 0.300000
v 0.800000 -0.500000 0.100000
v 0.800000 -0.500000 -0.100000
v 0.800000 -0.500000 -0.300000
v 0.800000 3.500000 0.300000
v 0.800000 3.500000 0.100000
v 0.800000 3.500000 -0.100000
v 0.800000 3.500000 -0.300000
v 1.000000 -0.500000 0.100000
v 1.000000 -0.500000 -0.100000
v 1.000000 3.500000 6.000000
v 1.000000 3.500000 0.100000
v 1.000000 3.500000 -0.100000
v 1.000000 3.500000 -6.000000
v 1.000000 4.500000 6.000000
v 1.000000 4.500000 -6.000000
v -1.000000 3.500000 6.000000
v -1.000000 4.500000 6.000000
v 1.000000 3.500000 6.000000
v 1.000000 4.500000 6.000000
v -0.600000 -0.500000 0.500000
v -0.600000 3.500000 0.500000
v -0.500000 -0.500000 0.500000
v -0.500000 1.100000 0.500000
v -0.200000 1.100000 0.500000
v -0.200000 1.200000 0.500000
v -0.100000 1.200000 0.500000
v -0.100000 1.300000 0.500000
v 0.100000 1.200000 0.500000
v 0.100000 1.300000 0.500000
v 0.200000 1.100000 0.500000
v 0.200000 1.200000 0.500000
v 0.500000 -0.500000 0.500000
v 0.500000 1.100000 0.500000
v 0.600000 -0.500000 0.500000
v 0.600000 3.500000 0.500000
v -0.500000 -0.500000 0.400000
v -0.500000 1.100000 0.400000
v -0.300000 -0.500000 0.400000
v -0.300000 1.100000 0.400000
v 0.300000 -0.500000 0.400000
v 0.300000 1.100000 0.400000
v 0.500000 -0.500000 0.400000
v 0.500000 1.100000 0.400000
v -0.800000 -0.500000 0.300000
v -0.800000 3.500000 0.300000
v -0.600000 -0.500000 0.300000
v -0.600000 3.500000 0.300000
v 0.600000 -0.500000 0.300000
v 0.600000 3.500000 0.300000
v 0.800000 -0.500000 0.300000
v 0.800000 3.500000 0.300000
v -1.000000 -0.500000 0.100000
v -1.000000 3.500000 0.100000
v -0.800000 -0.500000 0.100000
v -0.800000 3.500000 0.100000
v -0.700000 -0.400000 0.100000
v -0.700000 3.500000 0.100000
v -0.400000 -0.400000 0.100000
v -0.400000 1.400000 0.100000
v 0.100000 1.300000 0.100000
v 0.100000 1.400000 0.100000
v 0.400000 -0.400000 0.100000
v 0.400000 1.300000 0.100000
v 0.700000 -0.400000 0.100000
v 0.700000 3.500000 0.100000
v 0.800000 -0.500000 0.100000
v 0.800000 3.500000 0.100000
v 1.000000 -0.500000 0.100000
v 1.000000 3.500000 0.100000
v -0.700000 -0.400000 0.200000
v -0.700000 3.500000 0.200000
v -0.400000 -0.400000 0.200000
v -0.400000 1.400000 0.200000
v 0.100000 1.300000 0.200000
v 0.100000 1.400000 0.200000
v 0.400000 -0.400000 0.200000
v 0.400000 1.300000 0.200000
v 0.700000 -0.400000 0.200000
v 0.700000 3.500000 0.200000
v -1.000000 -0.500000 -0.100000
v -1.000000 3.500000 -0.100000
v -0.800000 -0.500000 -0.100000
v -0.800000 3.500000 -0.100000
v 0.800000 -0.500000 -0.100000
v 0.800000 3.500000 -0.100000
v 1.000000 -0.500000 -0.100000
v 1.000000 3.500000 -0.100000
v -0.800000 -0.500000 -0.300000
v -0.800000 3.500000 -0.300000
v -0.600000 -0.500000 -0.300000
v -0.600000 3.500000 -0.300000
v 0.600000 -0.500000 -0.300000
v 0.600000 3.500000 -0.300000
v 0.800000 -0.500000 -0.300000
v 0.800000 3.500000 -0.300000
v -0.500000 -0.500000 -0.400000
v -0.500000 1.100000 -0.400000
v -0.300000 -0.500000 -0.400000
v -0.300000 1.100000 -0.400000
v 0.300000 -0.500000 -0.400000
v 0.300000 1.100000 -0.400000
v 0.500000 -0.500000 -0.400000
v 0.500000 1.100000 -0.400000
v -0.600000 -0.500000 -0.500000
v -0.600000 3.500000 -0.500000
v -0.500000 -0.500000 -0.500000
v -0.500000 1.100000 -0.500000
v -0.200000 1.100000 -0.500000
v -0.200000 1.200000 -0.500000
v -0.100000 1.200000 -0.500000
v -0.100000 1.300000 -0.500000
v 0.100000 1.200000 -0.500000
v 0.100000 1.300000 -0.500000
v 0.200000 1.100000 -0.500000
v 0.200000 1.200000 -0.500000
v 0.500000 -0.500000 -0.500000
v 0.500000 1.100000 -0.500000
v 0.600000 -0.500000 -0.500000
v 0.600000 3.500000 -0.500000
v -1.000000 3.500000 -6.000000
v -1.000000 4.500000 -6.000000
v 1.000000 3.500000 -6.000000
v 1.000000 4.500000 -6.000000
v -0.600000 -0.500000 0.500000
v -0.500000 -0.500000 0.500000
v 0.500000 -0.500000 0.500000
v 0.600000 -0.500000 0.500000
v -0.500000 -0.500000 0.400000
v -0.300000 -0.500000 0.400000
v 0.300000 -0.500000 0.400000
v 0.500000 -0.500000 0.400000
v -0.800000 -0.500000 0.300000
v -0.600000 -0.500000 0.300000
v 0.600000 -0.500000 0.300000
v 0.800000 -0.500000 0.300000
v -1.000000 -0.500000 0.100000
v -0.800000 -0.500000 0.100000
v 0.800000 -0.500000 0.100000
v 1.000000 -0.500000 0.100000
v -1.000000 -0.500000 -0.100000
v -0.800000 -0.500000 -0.100000
v 0.800000 -0.500000 -0.100000
v 1.000000 -0.500000 -0.100000
v -0.800000 -0.500000 -0.300000
v -0.600000 -0.500000 -0.300000
v 0.600000 -0.500000 -0.300000
v 0.800000 -0.500000 -0.300000
v -0.500000 -0.500000 -0.400000
v -0.300000 -0.500000 -0.400000
v 0.300000 -0.500000 -0.400000
v 0.500000 -0.500000 -0.400000
v -0.600000 -0.500000 -0.500000
v -0.500000 -0.500000 -0.500000
v 0.500000 -0.500000 -0.500000
v 0.600000 -0.500000 -0.500000
v -0.500000 1.100000 0.500000
v -0.200000 1.100000 0.500000
v 0.200000 1.100000 0.500000
v 0.500000 1.100000 0.500000
v -0.500000 1.100000 0.400000
v -0.300000 1.100000 0.400000
v 0.300000 1.100000 0.400000
v 0.500000 1.100000 0.400000
v -0.500000 1.100000 -0.400000
v -0.300000 1.100000 -0.400000
v 0.300000 1.100000 -0.400000
v 0.500000 1.100000 -0.400000
v -0.500000 1.100000 -0.500000
v -0.200000 1.100000 -0.500000
v 0.200000 1.100000 -0.500000
v 0.500000 1.100000 -0.500000
v -0.200000 1.200000 0.500000
v -0.100000 1.200000 0.500000
v 0.100000 1.200000 0.500000
v 0.200000 1.200000 0.500000
v -0.200000 1.200000 -0.500000
v -0.100000 1.200000 -0.500000
v 0.100000 1.200000 -0.500000
v 0.200000 1.200000 -0.500000
v -0.100000 1.300000 0.500000
v 0.100000 1.300000 0.500000
v -0.100000 1.300000 -0.500000
v 0.100000 1.300000 -0.500000
v -1.000000 3.500000 6.000000
v 1.000000 3.500000 6.000000
v -0.600000 3.500000 0.500000
v 0.600000 3.500000 0.500000
v -0.800000 3.500000 0.300000
v -0.600000 3.500000 0.300000
v 0.600000 3.500000 0.300000
v 0.800000 3.500000 0.300000
v -0.700000 3.500000 0.200000
v 0.700000 3.500000 0.200000
v -1.000000 3.500000 0.100000
v -0.800000 3.500000 0.100000
v -0.700000 3.500000 0.100000
v 0.700000 3.500000 0.100000
v 0.800000 3.500000 0.100000
v 1.000000 3.500000 0.100000
v -1.000000 3.500000 -0.100000
v -0.800000 3.500000 -0.100000
v 0.800000 3.500000 -0.100000
v 1.000000 3.500000 -0.100000
v -0.800000 3.500000 -0.300000
v -0.600000 3.500000 -0.300000
v 0.600000 3.500000 -0.300000
v 0.800000 3.500000 -0.300000
v -0.600000 3.500000 -0.500000
v 0.600000 3.500000 -0.500000
v -1.000000 3.500000 -6.000000
v 1.000000 3.500000 -6.000000
v -0.700000 -0.400000 0.200000
v -0.400000 -0.400000 0.200000
v 0.400000 -0.400000 0.200000
v 0.700000 -0.400000 0.200000
v -0.700000 -0.400000 0.100000
v -0.400000 -0.400000 0.100000
v 0.400000 -0.400000 0.100000
v 0.700000 -0.400000 0.100000
v 0.100000 1.300000 0.200000
v 0.400000 1.300000 0.200000
v 0.100000 1.300000 0.100000
v 0.400000 1.300000 0.100000
v -0.400000 1.400000 0.200000
v 0.100000 1.400000 0.200000
v -0.400000 1.400000 0.100000
v 0.100000 1.400000 0.100000
v -1.000000 4.500000 6.000000
v 1.000000 4.500000 6.000000
v -1.000000 4.500000 -6.000000
v 1.000000 4.500000 -6.000000
vn -1.0000 -0.0000 -0.0000
vn 1.0000 -0.0000 -0.0000
vn -0.0000 -0.0000 1.0000
vn -0.0000 -0.0000 -1.0000
vn -0.0000 -1.0000 -0.0000
vn -0.0000 1.0000 -0.0000
vt 0.978516 0.500000
vt 0.986328 0.500000
s 0
usemtl palette.003
f 4/1/1 2/1/1 1/1/1
f 5/1/1 2/1/1 4/1/1
f 7/2/1 4/2/1 3/2/1
f 7/2/1 6/2/1 5/2/1
f 7/2/1 5/2/1 4/2/1
f 8/2/1 6/2/1 7/2/1
f 13/1/1 10/1/1 9/1/1
f 14/1/1 10/1/1 13/1/1
f 15/1/1 12/1/1 11/1/1
f 16/1/1 12/1/1 15/1/1
f 21/1/1 18/1/1 17/1/1
f 22/1/1 18/1/1 21/1/1
f 23/1/1 20/1/1 19/1/1
f 24/1/1 20/1/1 23/1/1
f 27/1/1 26/1/1 25/1/1
f 28/1/1 26/1/1 27/1/1
f 31/1/1 30/1/1 29/1/1
f 32/1/1 30/1/1 31/1/1
f 35/1/1 34/1/1 33/1/1
f 36/1/1 34/1/1 35/1/1
f 39/1/1 38/1/1 37/1/1
f 40/1/1 38/1/1 39/1/1
f 45/1/1 42/1/1 41/1/1
f 46/1/1 42/1/1 45/1/1
f 47/1/1 44/1/1 43/1/1
f 48/1/1 44/1/1 47/1/1
f 51/1/1 50/1/1 49/1/1
f 52/1/1 50/1/1 51/1/1
f 53/1/2 54/1/2 55/1/2
f 55/1/2 54/1/2 56/1/2
f 57/1/2 58/1/2 61/1/2
f 61/1/2 58/1/2 62/1/2
f 59/1/2 60/1/2 63/1/2
f 63/1/2 60/1/2 64/1/2
f 65/1/2 66/1/2 67/1/2
f 67/1/2 66/1/2 68/1/2
f 69/1/2 70/1/2 71/1/2
f 71/1/2 70/1/2 72/1/2
f 73/1/2 74/1/2 75/1/2
f 75/1/2 74/1/2 76/1/2
f 77/1/2 78/1/2 79/1/2
f 79/1/2 78/1/2 80/1/2
f 81/1/2 82/1/2 83/1/2
f 83/1/2 82/1/2 84/1/2
f 85/1/2 86/1/2 89/1/2
f 89/1/2 86/1/2 90/1/2
f 87/1/2 88/1/2 91/1/2
f 91/1/2 88/1/2 92/1/2
f 93/1/2 94/1/2 97/1/2
f 97/1/2 94/1/2 98/1/2
f 95/1/2 96/1/2 99/1/2
f 99/1/2 96/1/2 100/1/2
f 101/1/2 102/1/2 104/1/2
f 104/1/2 102/1/2 105/1/2
f 103/2/2 104/2/2 107/2/2
f 105/2/2 106/2/2 107/2/2
f 104/2/2 105/2/2 107/2/2
f 107/2/2 106/2/2 108/2/2
f 111/2/3 110/2/3 109/2/3
f 112/2/3 110/2/3 111/2/3
f 115/1/3 114/1/3 113/1/3
f 116/1/3 114/1/3 115/1/3
f 117/1/3 114/1/3 116/1/3
f 118/1/3 114/1/3 117/1/3
f 119/1/3 114/1/3 118/1/3
f 120/1/3 114/1/3 119/1/3
f 122/1/3 114/1/3 120/1/3
f 124/1/3 122/1/3 121/1/3
f 126/1/3 124/1/3 123/1/3
f 127/1/3 126/1/3 125/1/3
f 128/1/3 114/1/3 122/1/3
f 128/1/3 126/1/3 127/1/3
f 128/1/3 122/1/3 124/1/3
f 128/1/3 124/1/3 126/1/3
f 131/1/3 130/1/3 129/1/3
f 132/1/3 130/1/3 131/1/3
f 135/1/3 134/1/3 133/1/3
f 136/1/3 134/1/3 135/1/3
f 139/1/3 138/1/3 137/1/3
f 140/1/3 138/1/3 139/1/3
f 143/1/3 142/1/3 141/1/3
f 144/1/3 142/1/3 143/1/3
f 147/1/3 146/1/3 145/1/3
f 148/1/3 146/1/3 147/1/3
f 151/1/3 150/1/3 149/1/3
f 152/1/3 150/1/3 151/1/3
f 154/1/3 150/1/3 152/1/3
f 156/1/3 154/1/3 153/1/3
f 157/1/3 156/1/3 155/1/3
f 158/1/3 150/1/3 154/1/3
f 158/1/3 156/1/3 157/1/3
f 158/1/3 154/1/3 156/1/3
f 161/1/3 160/1/3 159/1/3
f 162/1/3 160/1/3 161/1/3
f 163/1/4 164/1/4 165/1/4
f 165/1/4 164/1/4 166/1/4
f 166/1/4 164/1/4 168/1/4
f 167/1/4 168/1/4 170/1/4
f 169/1/4 170/1/4 171/1/4
f 168/1/4 164/1/4 172/1/4
f 171/1/4 170/1/4 172/1/4
f 170/1/4 168/1/4 172/1/4
f 173/1/4 174/1/4 175/1/4
f 175/1/4 174/1/4 176/1/4
f 177/1/4 178/1/4 179/1/4
f 179/1/4 178/1/4 180/1/4
f 181/1/4 182/1/4 183/1/4
f 183/1/4 182/1/4 184/1/4
f 185/1/4 186/1/4 187/1/4
f 187/1/4 186/1/4 188/1/4
f 189/1/4 190/1/4 191/1/4
f 191/1/4 190/1/4 192/1/4
f 193/1/4 194/1/4 195/1/4
f 195/1/4 194/1/4 196/1/4
f 197/1/4 198/1/4 199/1/4
f 199/1/4 198/1/4 200/1/4
f 200/1/4 198/1/4 201/1/4
f 201/1/4 198/1/4 202/1/4
f 202/1/4 198/1/4 203/1/4
f 203/1/4 198/1/4 204/1/4
f 204/1/4 198/1/4 206/1/4
f 205/1/4 206/1/4 208/1/4
f 207/1/4 208/1/4 210/1/4
f 209/1/4 210/1/4 211/1/4
f 206/1/4 198/1/4 212/1/4
f 211/1/4 210/1/4 212/1/4
f 208/1/4 206/1/4 212/1/4
f 210/1/4 208/1/4 212/1/4
f 213/2/4 214/2/4 215/2/4
f 215/2/4 214/2/4 216/2/4
f 221/1/5 218/1/5 217/1/5
f 224/1/5 220/1/5 219/1/5
f 226/1/5 222/1/5 221/1/5
f 226/1/5 221/1/5 217/1/5
f 227/1/5 224/1/5 223/1/5
f 227/1/5 220/1/5 224/1/5
f 230/1/5 226/1/5 225/1/5
f 231/1/5 228/1/5 227/1/5
f 233/1/5 230/1/5 229/1/5
f 234/1/5 226/1/5 230/1/5
f 234/1/5 230/1/5 233/1/5
f 235/1/5 232/1/5 231/1/5
f 235/1/5 231/1/5 227/1/5
f 236/1/5 232/1/5 235/1/5
f 237/1/5 226/1/5 234/1/5
f 238/1/5 222/1/5 226/1/5
f 238/1/5 226/1/5 237/1/5
f 239/1/5 227/1/5 223/1/5
f 239/1/5 235/1/5 227/1/5
f 240/1/5 235/1/5 239/1/5
f 241/1/5 222/1/5 238/1/5
f 242/1/5 222/1/5 241/1/5
f 243/1/5 239/1/5 223/1/5
f 244/1/5 239/1/5 243/1/5
f 245/1/5 241/1/5 238/1/5
f 246/1/5 241/1/5 245/1/5
f 247/1/5 239/1/5 244/1/5
f 248/1/5 239/1/5 247/1/5
f 253/1/5 250/1/5 249/1/5
f 254/1/5 250/1/5 253/1/5
f 255/1/5 252/1/5 251/1/5
f 256/1/5 252/1/5 255/1/5
f 258/1/5 250/1/5 254/1/5
f 259/1/5 255/1/5 251/1/5
f 261/1/5 258/1/5 257/1/5
f 262/1/5 250/1/5 258/1/5
f 262/1/5 258/1/5 261/1/5
f 263/1/5 260/1/5 259/1/5
f 263/1/5 259/1/5 251/1/5
f 264/1/5 260/1/5 263/1/5
f 269/1/5 266/1/5 265/1/5
f 270/1/5 266/1/5 269/1/5
f 271/1/5 268/1/5 267/1/5
f 272/1/5 268/1/5 271/1/5
f 275/1/5 274/1/5 273/1/5
f 276/1/5 274/1/5 275/1/5
f 279/2/5 278/2/5 277/2/5
f 280/2/5 278/2/5 279/2/5
f 281/2/5 279/2/5 277/2/5
f 282/2/5 279/2/5 281/2/5
f 283/2/5 278/2/5 280/2/5
f 284/2/5 278/2/5 283/2/5
f 287/2/5 281/2/5 277/2/5
f 288/2/5 281/2/5 287/2/5
f 289/2/5 286/2/5 285/2/5
f 290/2/5 286/2/5 289/2/5
f 291/2/5 278/2/5 284/2/5
f 292/2/5 278/2/5 291/2/5
f 297/2/5 294/2/5 293/2/5
f 300/2/5 296/2/5 295/2/5
f 301/2/5 298/2/5 297/2/5
f 302/2/5 300/2/5 299/2/5
f 303/2/5 301/2/5 297/2/5
f 303/2/5 302/2/5 301/2/5
f 303/2/5 297/2/5 293/2/5
f 304/2/5 300/2/5 302/2/5
f 304/2/5 302/2/5 303/2/5
f 304/2/5 296/2/5 300/2/5
f 305/1/6 306/1/6 309/1/6
f 309/1/6 306/1/6 310/1/6
f 307/1/6 308/1/6 311/1/6
f 311/1/6 308/1/6 312/1/6
f 313/1/6 314/1/6 315/1/6
f 315/1/6 314/1/6 316/1/6
f 317/1/6 318/1/6 319/1/6
f 319/1/6 318/1/6 320/1/6
f 321/2/6 322/2/6 323/2/6
f 323/2/6 322/2/6 324/2/6
