# Blender 3.6.1
# www.blender.org
mtllib map5 bl.mtl
o Untitled
v -6.000000 1.000000 6.000000
v -6.000000 1.000000 -6.000000
v -6.000000 3.000000 6.000000
v -6.000000 3.000000 -6.000000
v 6.000000 1.000000 6.000000
v 6.000000 1.000000 -6.000000
v 6.000000 3.000000 6.000000
v 6.000000 3.000000 -6.000000
v -6.000000 1.000000 6.000000
v -6.000000 3.000000 6.000000
v 6.000000 1.000000 6.000000
v 6.000000 3.000000 6.000000
v -6.000000 1.000000 -6.000000
v -6.000000 3.000000 -6.000000
v 6.000000 1.000000 -6.000000
v 6.000000 3.000000 -6.000000
v -6.000000 1.000000 6.000000
v 6.000000 1.000000 6.000000
v -6.000000 1.000000 -6.000000
v 6.000000 1.000000 -6.000000
v -6.000000 3.000000 6.000000
v 6.000000 3.000000 6.000000
v -1.000000 3.000000 5.000000
v 1.000000 3.000000 5.000000
v -1.000000 3.000000 3.000000
v 1.000000 3.000000 3.000000
v -1.000000 3.000000 1.000000
v 1.000000 3.000000 1.000000
v -1.000000 3.000000 -1.000000
v 1.000000 3.000000 -1.000000
v -1.000000 3.000000 -3.000000
v 1.000000 3.000000 -3.000000
v -1.000000 3.000000 -5.000000
v 1.000000 3.000000 -5.000000
v -6.000000 3.000000 -6.000000
v 6.000000 3.000000 -6.000000
vn -1.0000 -0.0000 -0.0000
vn 1.0000 -0.0000 -0.0000
vn -0.0000 -0.0000 1.0000
vn -0.0000 -0.0000 -1.0000
vn -0.0000 -1.0000 -0.0000
vn -0.0000 1.0000 -0.0000
vt 0.986328 0.500000
vt 0.958984 0.500000
s 0
usemtl palette.006
f 3/1/1 2/1/1 1/1/1
f 4/1/1 2/1/1 3/1/1
f 5/1/2 6/1/2 7/1/2
f 7/1/2 6/1/2 8/1/2
f 11/1/3 10/1/3 9/1/3
f 12/1/3 10/1/3 11/1/3
f 13/1/4 14/1/4 15/1/4
f 15/1/4 14/1/4 16/1/4
f 19/1/5 18/1/5 17/1/5
f 20/1/5 18/1/5 19/1/5
f 21/1/6 22/1/6 23/1/6
f 23/1/6 22/1/6 24/1/6
f 21/1/6 23/1/6 25/1/6
f 23/2/6 24/2/6 25/2/6
f 24/1/6 22/1/6 26/1/6
f 25/2/6 24/2/6 26/2/6
f 21/1/6 25/1/6 27/1/6
f 25/1/6 26/1/6 27/1/6
f 26/1/6 22/1/6 28/1/6
f 27/1/6 26/1/6 28/1/6
f 21/1/6 27/1/6 29/1/6
f 27/2/6 28/2/6 29/2/6
f 28/1/6 22/1/6 30/1/6
f 29/2/6 28/2/6 30/2/6
f 21/1/6 29/1/6 31/1/6
f 29/1/6 30/1/6 31/1/6
f 30/1/6 22/1/6 32/1/6
f 31/1/6 30/1/6 32/1/6
f 21/1/6 31/1/6 33/1/6
f 31/2/6 32/2/6 33/2/6
f 32/1/6 22/1/6 34/1/6
f 33/2/6 32/2/6 34/2/6
f 21/1/6 33/1/6 35/1/6
f 33/1/6 34/1/6 35/1/6
f 34/1/6 22/1/6 36/1/6
f 35/1/6 34/1/6 36/1/6
